<svg xmlns="http://www.w3.org/2000/svg" width="160" height="156" viewBox="0 0 160 156"><rect width="100%" height="100%" fill="#DDDDDD"/><path fill="#999999" d="M32.285 78.175h2.76l-1.06-2.88q-.08-.19-.16-.46-.08-.26-.17-.57-.08.31-.16.57-.08.27-.16.47l-1.05 2.87Zm2.2-5.4 3.41 8.68h-1.25q-.21 0-.34-.1-.13-.11-.2-.27l-.65-1.77h-3.59l-.65 1.77q-.05.14-.19.26-.13.11-.34.11h-1.26l3.42-8.68h1.64Zm8.45 2.52h1.17l-2.44 6.16h-1.34l-2.44-6.16h1.22q.17 0 .28.08.11.08.15.2l1.18 3.29q.1.29.17.56.07.28.13.55.06-.27.13-.55.07-.27.17-.56l1.22-3.29q.04-.12.15-.2.1-.08.25-.08Zm5.21 4.57v-1.04q-.64.03-1.08.11-.44.08-.7.21-.26.13-.38.29-.11.17-.11.37 0 .39.23.56.23.17.6.17.46 0 .79-.17.33-.16.65-.5Zm-3.13-3.23-.26-.48q1.06-.97 2.55-.97.54 0 .97.18.42.17.72.49.29.31.45.75.15.44.15.96v3.89h-.67q-.21 0-.33-.06-.11-.07-.18-.26l-.13-.44q-.23.21-.46.37-.22.16-.46.26-.24.11-.51.17-.27.06-.6.06-.39 0-.72-.11-.33-.1-.57-.31-.24-.21-.38-.53-.13-.31-.13-.72 0-.24.08-.47.08-.23.26-.44.17-.21.45-.39.29-.19.7-.33t.95-.22q.55-.09 1.25-.11v-.36q0-.62-.26-.91-.27-.3-.76-.3-.36 0-.6.08-.24.09-.42.19-.18.11-.32.19-.15.09-.33.09-.16 0-.27-.08-.1-.09-.17-.19Zm8.02 4.92q-.8 0-1.23-.46-.43-.45-.43-1.25v-3.44h-.63q-.12 0-.2-.07-.09-.08-.09-.24v-.59l.99-.16.31-1.68q.03-.12.12-.18.08-.07.21-.07h.77v1.94h1.65v1.05h-1.65v3.34q0 .29.14.45.14.16.39.16.14 0 .23-.03t.16-.07q.07-.04.13-.07.05-.03.1-.03.07 0 .11.03.04.03.09.1l.45.72q-.33.27-.75.41-.42.14-.87.14Zm5.67-1.69v-1.04q-.65.03-1.08.11-.44.08-.71.21-.26.13-.37.29-.12.17-.12.37 0 .39.23.56.23.17.61.17.45 0 .79-.17.33-.16.65-.5Zm-3.14-3.23-.26-.48q1.06-.97 2.56-.97.54 0 .96.18.43.17.72.49.3.31.45.75.15.44.15.96v3.89h-.67q-.21 0-.32-.06-.12-.07-.18-.26l-.14-.44q-.23.21-.45.37t-.46.26q-.24.11-.52.17-.27.06-.6.06-.39 0-.72-.11-.33-.1-.57-.31-.24-.21-.37-.53-.13-.31-.13-.72 0-.24.07-.47.08-.23.26-.44t.46-.39q.28-.19.69-.33.41-.14.96-.22.54-.09 1.25-.11v-.36q0-.62-.27-.91-.26-.3-.76-.3-.36 0-.6.08-.23.09-.41.19-.18.11-.33.19-.15.09-.33.09-.15 0-.26-.08-.11-.09-.18-.19Zm7.28-.96.09.69q.29-.55.69-.87.39-.31.93-.31.43 0 .69.19l-.1 1.11q-.03.1-.09.15-.05.04-.15.04-.09 0-.27-.03-.17-.03-.34-.03-.25 0-.44.08-.19.07-.34.2-.16.14-.27.33-.12.19-.22.44v3.79h-1.49v-6.16h.87q.23 0 .32.08.09.09.12.3Zm7.57 1.42v2.76q.25.31.55.44.29.12.64.12.34 0 .61-.12.27-.13.46-.39t.29-.65q.1-.39.1-.93t-.09-.91q-.08-.38-.25-.61-.16-.23-.39-.34-.23-.11-.52-.11-.47 0-.79.19-.32.2-.61.55Zm-.2-1.53.12.57q.38-.42.86-.69.48-.26 1.13-.26.5 0 .92.21.41.21.72.61.3.4.47.98.16.59.16 1.34 0 .69-.19 1.28-.18.59-.53 1.02-.34.43-.83.68-.49.24-1.1.24-.51 0-.88-.16-.36-.16-.65-.44v2.52h-1.48v-8.17h.9q.29 0 .38.27Zm5.55-3.03h1.48v8.92h-1.48v-8.92Zm6.22 7.33v-1.04q-.65.03-1.08.11-.44.08-.71.21-.26.13-.37.29-.12.17-.12.37 0 .39.23.56.23.17.61.17.45 0 .79-.17.33-.16.65-.5Zm-3.14-3.23-.26-.48q1.06-.97 2.56-.97.54 0 .96.18.43.17.72.49.3.31.45.75.15.44.15.96v3.89h-.67q-.21 0-.32-.06-.12-.07-.18-.26l-.14-.44q-.23.21-.45.37t-.46.26q-.24.11-.52.17-.27.06-.6.06-.39 0-.72-.11-.33-.1-.57-.31-.24-.21-.37-.53-.13-.31-.13-.72 0-.24.07-.47.08-.23.26-.44t.46-.39q.28-.19.69-.33.41-.14.96-.22.54-.09 1.25-.11v-.36q0-.62-.27-.91-.26-.3-.76-.3-.36 0-.6.08-.23.09-.41.19-.18.11-.33.19-.15.09-.33.09-.15 0-.26-.08-.11-.09-.18-.19Zm10.77-.57-.39.54q-.06.08-.12.13-.07.05-.19.05-.11 0-.22-.07t-.26-.16q-.15-.09-.35-.15-.21-.07-.52-.07-.39 0-.68.14-.3.14-.49.4-.2.27-.29.64-.1.38-.1.85 0 .49.11.88.1.38.3.64.2.26.48.4.28.13.64.13.35 0 .57-.09.22-.08.37-.19.15-.1.26-.19.11-.09.25-.09.18 0 .27.14l.42.54q-.24.29-.53.49-.29.19-.6.31-.31.11-.63.16-.33.05-.65.05-.57 0-1.08-.21-.5-.22-.88-.62-.38-.41-.6-1-.22-.59-.22-1.35 0-.68.2-1.26.19-.58.57-1 .38-.42.94-.66.56-.24 1.28-.24.69 0 1.21.22t.93.64Zm2.16 1.6h2.79q0-.28-.08-.54-.08-.25-.24-.45-.16-.19-.41-.3-.25-.11-.58-.11-.64 0-1.01.37-.37.36-.47 1.03Zm3.78.9h-3.81q.03.47.17.82.13.34.34.57.22.22.52.33.29.11.65.11.36 0 .63-.08.26-.08.45-.19.2-.1.34-.18.15-.09.29-.09.18 0 .27.14l.43.54q-.25.29-.55.49-.31.19-.64.31-.33.11-.68.16-.34.05-.67.05-.64 0-1.19-.21-.55-.22-.96-.63-.41-.42-.64-1.04-.24-.61-.24-1.42 0-.63.21-1.19.2-.55.58-.96.38-.41.93-.65.55-.24 1.24-.24.58 0 1.07.18.5.19.85.55.35.35.56.87.2.52.2 1.19 0 .33-.08.45-.07.12-.27.12Zm2.94-6.03v3.42q.36-.33.79-.54.43-.21 1.01-.21.51 0 .9.17t.65.48q.26.31.4.74.13.43.13.94v3.92h-1.48v-3.92q0-.56-.26-.87-.26-.31-.79-.31-.38 0-.72.17-.33.18-.63.48v4.45h-1.48v-8.92h1.48Zm8.01 2.67q.68 0 1.24.22.56.22.96.63.4.41.62 1 .21.58.21 1.31 0 .73-.21 1.32-.22.59-.62 1-.4.42-.96.64-.56.22-1.24.22-.69 0-1.26-.22-.56-.22-.96-.64-.4-.41-.62-1-.22-.59-.22-1.32 0-.73.22-1.31.22-.59.62-1 .4-.41.96-.63.57-.22 1.26-.22Zm0 5.2q.77 0 1.14-.52.36-.51.36-1.51 0-.99-.36-1.52-.37-.52-1.14-.52-.78 0-1.16.53-.37.52-.37 1.51t.37 1.51q.38.52 1.16.52Zm4.19-7.87h1.48v8.92h-1.48v-8.92Zm6.82 7.1v-2.76q-.25-.31-.54-.44-.3-.12-.64-.12t-.61.12q-.27.13-.46.39-.19.25-.3.64-.1.4-.1.93 0 .54.09.91.09.38.25.62.16.23.39.34.24.1.53.1.46 0 .78-.19.33-.19.61-.54Zm0-7.1h1.49v8.92h-.91q-.29 0-.37-.27l-.13-.59q-.37.42-.85.69-.49.26-1.13.26-.5 0-.92-.21-.42-.21-.72-.61-.31-.4-.47-.99-.17-.58-.17-1.34 0-.68.19-1.27.18-.59.53-1.02.35-.43.84-.68.48-.24 1.09-.24.51 0 .88.16t.65.44v-3.25Zm4.12 5.13h2.8q0-.28-.08-.54-.09-.25-.25-.45-.16-.19-.41-.3-.25-.11-.58-.11-.64 0-1.01.37-.37.36-.47 1.03Zm3.78.9h-3.81q.04.47.17.82.13.34.35.57.21.22.51.33.3.11.66.11.36 0 .62-.08t.45-.19q.2-.1.35-.18.14-.09.28-.09.19 0 .28.14l.42.54q-.24.29-.55.49-.31.19-.64.31-.33.11-.68.16-.34.05-.67.05-.64 0-1.19-.21-.55-.22-.96-.63-.41-.42-.64-1.04-.24-.61-.24-1.42 0-.63.21-1.19.2-.55.58-.96.38-.41.93-.65.55-.24 1.24-.24.58 0 1.08.18.49.19.84.55.36.35.56.87.2.52.2 1.19 0 .33-.07.45-.08.12-.28.12Zm2.77-2.89.09.69q.28-.55.68-.87.4-.31.94-.31.42 0 .68.19l-.1 1.11q-.03.1-.08.15-.06.04-.16.04-.09 0-.26-.03-.18-.03-.35-.03-.24 0-.44.08-.19.07-.34.2-.15.14-.27.33-.12.19-.22.44v3.79h-1.48v-6.16h.87q.23 0 .32.08.09.09.12.3Z"/></svg>